<mxfile host="app.diagrams.net" modified="2024-03-17T12:51:39.793Z" agent="Mozilla/5.0 (Windows NT 10.0; Win64; x64) AppleWebKit/537.36 (KHTML, like Gecko) Chrome/122.0.0.0 Safari/537.36" etag="3jQfy92MRdcO7rM9hP2s" version="24.0.7" type="github">
  <diagram name="Страница — 1" id="gSOXvelILGLi7SI_kQdU">
    <mxGraphModel dx="875" dy="471" grid="1" gridSize="10" guides="1" tooltips="1" connect="1" arrows="1" fold="1" page="1" pageScale="1" pageWidth="827" pageHeight="1169" math="0" shadow="0">
      <root>
        <mxCell id="0" />
        <mxCell id="1" parent="0" />
        <mxCell id="LX55lx_NsstUEHzO6fc0-4" value="Зам. директора" style="shape=umlActor;verticalLabelPosition=bottom;verticalAlign=top;html=1;outlineConnect=0;" vertex="1" parent="1">
          <mxGeometry x="180" y="100" width="40" height="80" as="geometry" />
        </mxCell>
        <mxCell id="LX55lx_NsstUEHzO6fc0-37" value="Опубликовать пост с важной информацией" style="ellipse;whiteSpace=wrap;html=1;" vertex="1" parent="1">
          <mxGeometry x="50" y="110" width="100" height="80" as="geometry" />
        </mxCell>
        <mxCell id="LX55lx_NsstUEHzO6fc0-44" style="rounded=0;orthogonalLoop=1;jettySize=auto;html=1;entryX=0;entryY=1;entryDx=0;entryDy=0;dashed=1;" edge="1" parent="1" source="LX55lx_NsstUEHzO6fc0-39" target="LX55lx_NsstUEHzO6fc0-42">
          <mxGeometry relative="1" as="geometry" />
        </mxCell>
        <mxCell id="LX55lx_NsstUEHzO6fc0-45" style="rounded=0;orthogonalLoop=1;jettySize=auto;html=1;dashed=1;" edge="1" parent="1" source="LX55lx_NsstUEHzO6fc0-39" target="LX55lx_NsstUEHzO6fc0-41">
          <mxGeometry relative="1" as="geometry" />
        </mxCell>
        <mxCell id="LX55lx_NsstUEHzO6fc0-46" style="rounded=0;orthogonalLoop=1;jettySize=auto;html=1;exitX=1;exitY=1;exitDx=0;exitDy=0;entryX=0;entryY=0;entryDx=0;entryDy=0;dashed=1;" edge="1" parent="1" source="LX55lx_NsstUEHzO6fc0-39" target="LX55lx_NsstUEHzO6fc0-43">
          <mxGeometry relative="1" as="geometry" />
        </mxCell>
        <mxCell id="LX55lx_NsstUEHzO6fc0-39" value="Составить расписание" style="ellipse;whiteSpace=wrap;html=1;" vertex="1" parent="1">
          <mxGeometry x="260" y="90" width="120" height="60" as="geometry" />
        </mxCell>
        <mxCell id="LX55lx_NsstUEHzO6fc0-41" value="Составить расписание мероприятий" style="ellipse;whiteSpace=wrap;html=1;" vertex="1" parent="1">
          <mxGeometry x="500" y="100" width="110" height="70" as="geometry" />
        </mxCell>
        <mxCell id="LX55lx_NsstUEHzO6fc0-42" value="Составить расписание занятий" style="ellipse;whiteSpace=wrap;html=1;" vertex="1" parent="1">
          <mxGeometry x="410" y="30" width="110" height="70" as="geometry" />
        </mxCell>
        <mxCell id="LX55lx_NsstUEHzO6fc0-43" value="Составить расписание каникул" style="ellipse;whiteSpace=wrap;html=1;" vertex="1" parent="1">
          <mxGeometry x="390" y="150" width="110" height="70" as="geometry" />
        </mxCell>
        <mxCell id="LX55lx_NsstUEHzO6fc0-53" value="Обучающийся" style="shape=umlActor;verticalLabelPosition=bottom;verticalAlign=top;html=1;outlineConnect=0;" vertex="1" parent="1">
          <mxGeometry x="700" y="223.5" width="40" height="80" as="geometry" />
        </mxCell>
        <mxCell id="LX55lx_NsstUEHzO6fc0-58" style="edgeStyle=orthogonalEdgeStyle;rounded=0;orthogonalLoop=1;jettySize=auto;html=1;exitX=0.5;exitY=0;exitDx=0;exitDy=0;exitPerimeter=0;endArrow=block;endFill=0;" edge="1" parent="1" source="LX55lx_NsstUEHzO6fc0-57">
          <mxGeometry relative="1" as="geometry">
            <mxPoint x="200" y="381" as="targetPoint" />
          </mxGeometry>
        </mxCell>
        <mxCell id="LX55lx_NsstUEHzO6fc0-57" value="Кл. руководитель" style="shape=umlActor;verticalLabelPosition=bottom;verticalAlign=top;html=1;outlineConnect=0;" vertex="1" parent="1">
          <mxGeometry x="180" y="471" width="40" height="80" as="geometry" />
        </mxCell>
        <mxCell id="LX55lx_NsstUEHzO6fc0-65" style="rounded=0;orthogonalLoop=1;jettySize=auto;html=1;exitX=0;exitY=0.5;exitDx=0;exitDy=0;endArrow=none;endFill=0;" edge="1" parent="1" source="LX55lx_NsstUEHzO6fc0-64" target="LX55lx_NsstUEHzO6fc0-57">
          <mxGeometry relative="1" as="geometry" />
        </mxCell>
        <mxCell id="LX55lx_NsstUEHzO6fc0-68" style="rounded=0;orthogonalLoop=1;jettySize=auto;html=1;exitX=0.5;exitY=0;exitDx=0;exitDy=0;entryX=0.72;entryY=0.957;entryDx=0;entryDy=0;endArrow=classic;endFill=1;dashed=1;entryPerimeter=0;" edge="1" parent="1" source="LX55lx_NsstUEHzO6fc0-67" target="LX55lx_NsstUEHzO6fc0-64">
          <mxGeometry relative="1" as="geometry" />
        </mxCell>
        <mxCell id="LX55lx_NsstUEHzO6fc0-71" style="rounded=0;orthogonalLoop=1;jettySize=auto;html=1;exitX=0;exitY=0;exitDx=0;exitDy=0;dashed=1;entryX=0.95;entryY=0.719;entryDx=0;entryDy=0;entryPerimeter=0;" edge="1" parent="1" source="LX55lx_NsstUEHzO6fc0-66" target="LX55lx_NsstUEHzO6fc0-64">
          <mxGeometry relative="1" as="geometry">
            <mxPoint x="460" y="451" as="targetPoint" />
          </mxGeometry>
        </mxCell>
        <mxCell id="LX55lx_NsstUEHzO6fc0-64" value="Составить расписание родительских собраний" style="ellipse;whiteSpace=wrap;html=1;" vertex="1" parent="1">
          <mxGeometry x="260" y="471" width="180" height="70" as="geometry" />
        </mxCell>
        <mxCell id="LX55lx_NsstUEHzO6fc0-66" value="Организация мероприятий на собраниях" style="ellipse;whiteSpace=wrap;html=1;" vertex="1" parent="1">
          <mxGeometry x="440" y="531" width="110" height="70" as="geometry" />
        </mxCell>
        <mxCell id="LX55lx_NsstUEHzO6fc0-67" value="Приглашение родителей студентов" style="ellipse;whiteSpace=wrap;html=1;" vertex="1" parent="1">
          <mxGeometry x="350" y="586" width="110" height="70" as="geometry" />
        </mxCell>
        <mxCell id="LX55lx_NsstUEHzO6fc0-73" value="Проверка заданий" style="ellipse;whiteSpace=wrap;html=1;" vertex="1" parent="1">
          <mxGeometry x="440" y="303.5" width="100" height="55" as="geometry" />
        </mxCell>
        <mxCell id="LX55lx_NsstUEHzO6fc0-75" value="Отправка уведомлений" style="ellipse;whiteSpace=wrap;html=1;" vertex="1" parent="1">
          <mxGeometry x="459" y="381" width="110" height="50" as="geometry" />
        </mxCell>
        <mxCell id="LX55lx_NsstUEHzO6fc0-79" value="&amp;lt;&amp;lt;extend&amp;gt;&amp;gt;" style="text;html=1;align=center;verticalAlign=middle;resizable=0;points=[];autosize=1;strokeColor=none;fillColor=none;fontSize=9;" vertex="1" parent="1">
          <mxGeometry x="440" y="511" width="70" height="20" as="geometry" />
        </mxCell>
        <mxCell id="LX55lx_NsstUEHzO6fc0-80" value="&amp;lt;&amp;lt;extend&amp;gt;&amp;gt;" style="text;html=1;align=center;verticalAlign=middle;resizable=0;points=[];autosize=1;strokeColor=none;fillColor=none;fontSize=9;" vertex="1" parent="1">
          <mxGeometry x="330" y="556" width="70" height="20" as="geometry" />
        </mxCell>
        <mxCell id="LX55lx_NsstUEHzO6fc0-81" value="&amp;lt;&amp;lt;extend&amp;gt;&amp;gt;" style="text;html=1;align=center;verticalAlign=middle;resizable=0;points=[];autosize=1;strokeColor=none;fillColor=none;fontSize=9;" vertex="1" parent="1">
          <mxGeometry x="499" y="358.5" width="70" height="20" as="geometry" />
        </mxCell>
        <mxCell id="LX55lx_NsstUEHzO6fc0-83" value="Преподаватель" style="shape=umlActor;verticalLabelPosition=bottom;verticalAlign=top;html=1;outlineConnect=0;" vertex="1" parent="1">
          <mxGeometry x="180" y="278.5" width="40" height="80" as="geometry" />
        </mxCell>
        <mxCell id="LX55lx_NsstUEHzO6fc0-84" style="rounded=0;orthogonalLoop=1;jettySize=auto;html=1;exitX=1;exitY=0.5;exitDx=0;exitDy=0;endArrow=none;endFill=0;" edge="1" parent="1" source="LX55lx_NsstUEHzO6fc0-37" target="LX55lx_NsstUEHzO6fc0-4">
          <mxGeometry relative="1" as="geometry" />
        </mxCell>
        <mxCell id="LX55lx_NsstUEHzO6fc0-85" style="rounded=0;orthogonalLoop=1;jettySize=auto;html=1;entryX=0.05;entryY=0.694;entryDx=0;entryDy=0;entryPerimeter=0;endArrow=none;endFill=0;" edge="1" parent="1" source="LX55lx_NsstUEHzO6fc0-4" target="LX55lx_NsstUEHzO6fc0-39">
          <mxGeometry relative="1" as="geometry">
            <mxPoint x="240" y="160" as="sourcePoint" />
          </mxGeometry>
        </mxCell>
        <mxCell id="LX55lx_NsstUEHzO6fc0-86" value="&amp;lt;&amp;lt;include&amp;gt;&amp;gt;" style="text;html=1;align=center;verticalAlign=middle;resizable=0;points=[];autosize=1;strokeColor=none;fillColor=none;fontSize=9;" vertex="1" parent="1">
          <mxGeometry x="340" y="70" width="70" height="20" as="geometry" />
        </mxCell>
        <mxCell id="LX55lx_NsstUEHzO6fc0-87" value="&amp;lt;&amp;lt;include&amp;gt;&amp;gt;" style="text;html=1;align=center;verticalAlign=middle;resizable=0;points=[];autosize=1;strokeColor=none;fillColor=none;fontSize=9;" vertex="1" parent="1">
          <mxGeometry x="400" y="110" width="70" height="20" as="geometry" />
        </mxCell>
        <mxCell id="LX55lx_NsstUEHzO6fc0-88" value="&amp;lt;&amp;lt;include&amp;gt;&amp;gt;" style="text;html=1;align=center;verticalAlign=middle;resizable=0;points=[];autosize=1;strokeColor=none;fillColor=none;fontSize=9;" vertex="1" parent="1">
          <mxGeometry x="320" y="150" width="70" height="20" as="geometry" />
        </mxCell>
        <mxCell id="LX55lx_NsstUEHzO6fc0-92" style="rounded=0;orthogonalLoop=1;jettySize=auto;html=1;exitX=1;exitY=0;exitDx=0;exitDy=0;dashed=1;" edge="1" parent="1" source="LX55lx_NsstUEHzO6fc0-89" target="LX55lx_NsstUEHzO6fc0-73">
          <mxGeometry relative="1" as="geometry" />
        </mxCell>
        <mxCell id="LX55lx_NsstUEHzO6fc0-99" style="rounded=0;orthogonalLoop=1;jettySize=auto;html=1;endArrow=none;endFill=0;" edge="1" parent="1" source="LX55lx_NsstUEHzO6fc0-89" target="LX55lx_NsstUEHzO6fc0-83">
          <mxGeometry relative="1" as="geometry" />
        </mxCell>
        <mxCell id="LX55lx_NsstUEHzO6fc0-89" value="Выставить оценки в электронный журнал" style="ellipse;whiteSpace=wrap;html=1;" vertex="1" parent="1">
          <mxGeometry x="277" y="341" width="156" height="70" as="geometry" />
        </mxCell>
        <mxCell id="LX55lx_NsstUEHzO6fc0-94" value="&amp;lt;&amp;lt;include&amp;gt;&amp;gt;" style="text;html=1;align=center;verticalAlign=middle;resizable=0;points=[];autosize=1;strokeColor=none;fillColor=none;fontSize=9;" vertex="1" parent="1">
          <mxGeometry x="370" y="321" width="70" height="20" as="geometry" />
        </mxCell>
        <mxCell id="LX55lx_NsstUEHzO6fc0-95" style="rounded=0;orthogonalLoop=1;jettySize=auto;html=1;exitX=0.421;exitY=-0.027;exitDx=0;exitDy=0;entryX=0.5;entryY=1;entryDx=0;entryDy=0;dashed=1;exitPerimeter=0;" edge="1" parent="1" source="LX55lx_NsstUEHzO6fc0-75" target="LX55lx_NsstUEHzO6fc0-73">
          <mxGeometry relative="1" as="geometry" />
        </mxCell>
        <mxCell id="LX55lx_NsstUEHzO6fc0-96" style="rounded=0;orthogonalLoop=1;jettySize=auto;html=1;exitX=0;exitY=0.5;exitDx=0;exitDy=0;entryX=0.915;entryY=0.8;entryDx=0;entryDy=0;entryPerimeter=0;dashed=1;" edge="1" parent="1" source="LX55lx_NsstUEHzO6fc0-75" target="LX55lx_NsstUEHzO6fc0-89">
          <mxGeometry relative="1" as="geometry" />
        </mxCell>
        <mxCell id="LX55lx_NsstUEHzO6fc0-97" value="&amp;lt;&amp;lt;extend&amp;gt;&amp;gt;" style="text;html=1;align=center;verticalAlign=middle;resizable=0;points=[];autosize=1;strokeColor=none;fillColor=none;fontSize=9;" vertex="1" parent="1">
          <mxGeometry x="400" y="411" width="70" height="20" as="geometry" />
        </mxCell>
        <mxCell id="LX55lx_NsstUEHzO6fc0-102" style="rounded=0;orthogonalLoop=1;jettySize=auto;html=1;endArrow=none;endFill=0;" edge="1" parent="1" source="LX55lx_NsstUEHzO6fc0-101" target="LX55lx_NsstUEHzO6fc0-53">
          <mxGeometry relative="1" as="geometry" />
        </mxCell>
        <mxCell id="LX55lx_NsstUEHzO6fc0-104" style="rounded=0;orthogonalLoop=1;jettySize=auto;html=1;exitX=0;exitY=0;exitDx=0;exitDy=0;endArrow=none;endFill=0;" edge="1" parent="1" source="LX55lx_NsstUEHzO6fc0-101" target="LX55lx_NsstUEHzO6fc0-4">
          <mxGeometry relative="1" as="geometry" />
        </mxCell>
        <mxCell id="LX55lx_NsstUEHzO6fc0-101" value="Отправить сообщение" style="ellipse;whiteSpace=wrap;html=1;" vertex="1" parent="1">
          <mxGeometry x="359" y="231" width="110" height="70" as="geometry" />
        </mxCell>
        <mxCell id="LX55lx_NsstUEHzO6fc0-103" style="rounded=0;orthogonalLoop=1;jettySize=auto;html=1;exitX=0;exitY=0.5;exitDx=0;exitDy=0;endArrow=none;endFill=0;" edge="1" parent="1" source="LX55lx_NsstUEHzO6fc0-101">
          <mxGeometry relative="1" as="geometry">
            <mxPoint x="220" y="311" as="targetPoint" />
          </mxGeometry>
        </mxCell>
        <mxCell id="LX55lx_NsstUEHzO6fc0-106" style="rounded=0;orthogonalLoop=1;jettySize=auto;html=1;exitX=0;exitY=0.5;exitDx=0;exitDy=0;entryX=1;entryY=0;entryDx=0;entryDy=0;dashed=1;" edge="1" parent="1" source="LX55lx_NsstUEHzO6fc0-105" target="LX55lx_NsstUEHzO6fc0-101">
          <mxGeometry relative="1" as="geometry" />
        </mxCell>
        <mxCell id="LX55lx_NsstUEHzO6fc0-105" value="Прикрепить файл" style="ellipse;whiteSpace=wrap;html=1;" vertex="1" parent="1">
          <mxGeometry x="520" y="190" width="80" height="51" as="geometry" />
        </mxCell>
        <mxCell id="LX55lx_NsstUEHzO6fc0-107" value="&amp;lt;&amp;lt;extend&amp;gt;&amp;gt;" style="text;html=1;align=center;verticalAlign=middle;resizable=0;points=[];autosize=1;strokeColor=none;fillColor=none;fontSize=9;" vertex="1" parent="1">
          <mxGeometry x="460" y="231" width="70" height="20" as="geometry" />
        </mxCell>
        <mxCell id="LX55lx_NsstUEHzO6fc0-110" style="rounded=0;orthogonalLoop=1;jettySize=auto;html=1;exitX=1;exitY=0.5;exitDx=0;exitDy=0;endArrow=none;endFill=0;" edge="1" parent="1" source="LX55lx_NsstUEHzO6fc0-108" target="LX55lx_NsstUEHzO6fc0-53">
          <mxGeometry relative="1" as="geometry" />
        </mxCell>
        <mxCell id="LX55lx_NsstUEHzO6fc0-108" value="Узнать расписание" style="ellipse;whiteSpace=wrap;html=1;" vertex="1" parent="1">
          <mxGeometry x="540" y="276" width="90" height="45" as="geometry" />
        </mxCell>
        <mxCell id="LX55lx_NsstUEHzO6fc0-111" style="rounded=0;orthogonalLoop=1;jettySize=auto;html=1;exitX=1;exitY=0;exitDx=0;exitDy=0;endArrow=none;endFill=0;" edge="1" parent="1" source="LX55lx_NsstUEHzO6fc0-109" target="LX55lx_NsstUEHzO6fc0-53">
          <mxGeometry relative="1" as="geometry" />
        </mxCell>
        <mxCell id="LX55lx_NsstUEHzO6fc0-109" value="Узнать свои оценки" style="ellipse;whiteSpace=wrap;html=1;" vertex="1" parent="1">
          <mxGeometry x="569" y="333.5" width="90" height="45" as="geometry" />
        </mxCell>
      </root>
    </mxGraphModel>
  </diagram>
</mxfile>
